<svg xmlns="http://www.w3.org/2000/svg" viewBox="0 0 800 600" preserveAspectRatio="xMidYMid slice" role="img" aria-label="A songbird on a branch">
  <defs>
    <linearGradient id="bd" x1="0" y1="0" x2="0" y2="1">
      <stop offset="0" stop-color="#f6f1e9"/>
      <stop offset="1" stop-color="#eadfce"/>
    </linearGradient>
  </defs>
  <rect width="800" height="600" fill="url(#bd)"/>
  <path d="M120 430 C 300 410, 520 415, 700 405" fill="none" stroke="#c9a98c" stroke-width="4" stroke-linecap="round"/>
  <path d="M470 360 c -8 -34 28 -58 60 -46 c 30 -50 96 -34 96 22 c 14 6 14 26 -2 30 l -120 6 c -28 2 -42 -22 -34 -38 z" fill="#8e9b8c"/>
  <circle cx="612" cy="350" r="4" fill="#2b2a28"/>
  <path d="M624 352 l 26 -6 l -22 14 z" fill="#c9a98c"/>
  <path d="M520 420 l 8 28 m 28 -28 l 6 28" stroke="#6e6a63" stroke-width="3" stroke-linecap="round"/>
  <g fill="none" stroke="#8e9b8c" stroke-opacity="0.4" stroke-width="2">
    <path d="M660 320 q 24 -16 18 -44"/>
    <path d="M676 332 q 34 -20 30 -58"/>
  </g>
</svg>
