<svg xmlns="http://www.w3.org/2000/svg" viewBox="0 0 800 600" preserveAspectRatio="xMidYMid slice" role="img" aria-label="Piano keys in warm light">
  <defs>
    <linearGradient id="pn" x1="0" y1="0" x2="0" y2="1">
      <stop offset="0" stop-color="#f6f1e9"/>
      <stop offset="1" stop-color="#ece3d5"/>
    </linearGradient>
  </defs>
  <rect width="800" height="600" fill="url(#pn)"/>
  <g>
    <rect x="120" y="180" width="560" height="240" rx="6" fill="#faf8f4"/>
    <g stroke="#e3ddd2" stroke-width="2">
      <line x1="190" y1="190" x2="190" y2="410"/>
      <line x1="260" y1="190" x2="260" y2="410"/>
      <line x1="330" y1="190" x2="330" y2="410"/>
      <line x1="400" y1="190" x2="400" y2="410"/>
      <line x1="470" y1="190" x2="470" y2="410"/>
      <line x1="540" y1="190" x2="540" y2="410"/>
      <line x1="610" y1="190" x2="610" y2="410"/>
    </g>
    <g fill="#2b2a28">
      <rect x="168" y="185" width="30" height="140" rx="3"/>
      <rect x="246" y="185" width="30" height="140" rx="3"/>
      <rect x="386" y="185" width="30" height="140" rx="3"/>
      <rect x="456" y="185" width="30" height="140" rx="3"/>
      <rect x="526" y="185" width="30" height="140" rx="3"/>
    </g>
  </g>
  <rect x="120" y="180" width="560" height="60" fill="#c9a98c" fill-opacity="0.14"/>
</svg>
