<svg xmlns="http://www.w3.org/2000/svg" viewBox="0 0 1000 750" preserveAspectRatio="xMidYMid slice" role="img" aria-label="Daylight across a piano in a bright room">
  <defs>
    <linearGradient id="st" x1="0" y1="0" x2="0" y2="1">
      <stop offset="0" stop-color="#f8f4ec"/>
      <stop offset="1" stop-color="#ece3d5"/>
    </linearGradient>
  </defs>
  <rect width="1000" height="750" fill="url(#st)"/>
  <polygon points="120,40 300,40 240,360 60,360" fill="#ffffff" fill-opacity="0.5"/>
  <rect x="220" y="420" width="560" height="150" rx="10" fill="#2b2a28" fill-opacity="0.9"/>
  <rect x="250" y="430" width="500" height="40" rx="4" fill="#faf8f4"/>
  <g stroke="#c9a98c" stroke-width="2" stroke-opacity="0.6">
    <line x1="300" y1="432" x2="300" y2="468"/>
    <line x1="360" y1="432" x2="360" y2="468"/>
    <line x1="420" y1="432" x2="420" y2="468"/>
    <line x1="480" y1="432" x2="480" y2="468"/>
    <line x1="540" y1="432" x2="540" y2="468"/>
    <line x1="600" y1="432" x2="600" y2="468"/>
    <line x1="660" y1="432" x2="660" y2="468"/>
    <line x1="720" y1="432" x2="720" y2="468"/>
  </g>
  <rect x="300" y="570" width="30" height="120" fill="#2b2a28" fill-opacity="0.8"/>
  <rect x="670" y="570" width="30" height="120" fill="#2b2a28" fill-opacity="0.8"/>
  <line x1="0" y1="600" x2="1000" y2="600" stroke="#c9a98c" stroke-opacity="0.25" stroke-width="2"/>
</svg>
