<svg xmlns="http://www.w3.org/2000/svg" viewBox="0 0 800 600" preserveAspectRatio="xMidYMid slice" role="img" aria-label="A calm waveform">
  <defs>
    <linearGradient id="wv" x1="0" y1="0" x2="0" y2="1">
      <stop offset="0" stop-color="#f4eee4"/>
      <stop offset="1" stop-color="#e9dfd0"/>
    </linearGradient>
  </defs>
  <rect width="800" height="600" fill="url(#wv)"/>
  <g stroke="#8e9b8c" stroke-width="4" stroke-linecap="round">
    <line x1="90" y1="300" x2="90" y2="300"/>
    <line x1="140" y1="270" x2="140" y2="330"/>
    <line x1="190" y1="230" x2="190" y2="370"/>
    <line x1="240" y1="180" x2="240" y2="420"/>
    <line x1="290" y1="250" x2="290" y2="350"/>
    <line x1="340" y1="200" x2="340" y2="400"/>
    <line x1="390" y1="140" x2="390" y2="460"/>
    <line x1="440" y1="210" x2="440" y2="390"/>
    <line x1="490" y1="260" x2="490" y2="340"/>
    <line x1="540" y1="190" x2="540" y2="410"/>
    <line x1="590" y1="240" x2="590" y2="360"/>
    <line x1="640" y1="280" x2="640" y2="320"/>
    <line x1="690" y1="260" x2="690" y2="340"/>
  </g>
  <line x1="60" y1="300" x2="740" y2="300" stroke="#c9a98c" stroke-opacity="0.4" stroke-width="1.5"/>
</svg>
